<svg width="12" height="14" xmlns="http://www.w3.org/2000/svg"><path fill-rule="evenodd" clip-rule="evenodd" d="M3.138.37a.26.26 0 00-.1.035.275.275 0 00-.07.385l.6.884a3.482 3.482 0 00-1.847 2.243h7.685A3.482 3.482 0 007.563 1.67l.6-.884A.275.275 0 008.093.4.288.288 0 007.7.483l-.661.957a4.388 4.388 0 00-2.956 0L3.425.483A.281.281 0 003.138.37zm.9 2.18c.23 0 .417.183.417.41 0 .226-.187.41-.417.41a.413.413 0 01-.417-.41c0-.225.184-.407.412-.41h.005zm3.06 0c.23 0 .417.183.417.41 0 .226-.187.41-.417.41a.413.413 0 01-.417-.41c0-.225.184-.407.412-.41h.005zM.835 4.464a.842.842 0 00-.59.24.814.814 0 00-.245.581v3.827a.828.828 0 001.113.77V4.515a.829.829 0 00-.278-.05zm.835 0v6.015c0 .453.374.82.835.82h6.12c.46 0 .834-.367.835-.82V4.464H1.67zm8.623 0a.828.828 0 00-.278.051v5.366c.255.094.54.058.763-.096a.806.806 0 00.35-.673V5.285a.814.814 0 00-.245-.58.843.843 0 00-.591-.24h.001zm-7.511 7.381v1.094C2.8 13.53 3.292 14 3.894 14c.602 0 1.095-.47 1.113-1.06v-1.095H2.782zm3.338 0v1.094C6.138 13.53 6.63 14 7.232 14c.602 0 1.095-.47 1.113-1.06v-1.095H6.12z" fill="#A7A9AB"/></svg>