<svg width="12" height="14" xmlns="http://www.w3.org/2000/svg"><path fill-rule="evenodd" clip-rule="evenodd" d="M11.694 9.78a9.526 9.526 0 01-.88 1.617c-.572.856-1.38 1.924-2.377 1.931-.888.008-1.117-.569-2.323-.56-1.206.01-1.456.57-2.345.562-1-.009-1.762-.971-2.334-1.826-1.6-2.396-1.77-5.209-.78-6.7A3.552 3.552 0 013.5 3.121c1.06 0 1.725.572 2.6.572.85 0 1.367-.573 2.592-.573A3.478 3.478 0 0111.3 4.472 2.92 2.92 0 009.77 7.25a2.937 2.937 0 001.925 2.53zm-3.93-7.618A2.886 2.886 0 008.424 0a3.232 3.232 0 00-2.073 1.096 2.686 2.686 0 00-.678 2.111 2.716 2.716 0 002.09-1.045z" fill="#A7A9AB"/></svg>