<svg width="19" height="17" viewBox="0 0 19 17" fill="none" xmlns="http://www.w3.org/2000/svg">
<path fill-rule="evenodd" clip-rule="evenodd" d="M18.3298 15.1579L12.5408 10.1646C13.6386 9.10077 14.2382 7.7228 14.2231 6.29875C14.2231 3.09634 11.2132 0.500217 7.50017 0.5C3.78711 0.499783 0.776808 3.09556 0.776306 6.29797C0.775804 9.50038 3.78529 12.0969 7.49836 12.0975C8.77891 12.1005 10.033 11.7834 11.109 11.1846L17.0226 16.2853C17.4188 16.5716 17.996 16.5716 18.3921 16.2853C18.7163 15.9532 18.6892 15.4618 18.3298 15.1579ZM2.33126 6.29914C2.33108 4.49665 3.58987 2.87156 5.52064 2.18167C7.45141 1.49178 9.67392 1.87295 11.1518 3.14745C12.6296 4.42194 13.0718 6.33876 12.2721 8.00406C11.4723 9.66935 9.5882 10.7552 7.49829 10.7552C6.12695 10.7581 4.8108 10.2896 3.84107 9.45328C2.87134 8.61699 2.32799 7.48188 2.33126 6.29914Z" fill="#7F8182"/>
</svg>
